<?xml version="1.0" standalone="no"?>
<!DOCTYPE svg PUBLIC "-//W3C//DTD SVG 20010904//EN"
 "http://www.w3.org/TR/2001/REC-SVG-20010904/DTD/svg10.dtd">
<svg version="1.0" xmlns="http://www.w3.org/2000/svg"
 width="700.000000pt" height="700.000000pt" viewBox="0 0 700.000000 700.000000"
 preserveAspectRatio="xMidYMid meet">
<metadata>
Created by potrace 1.11, written by Peter Selinger 2001-2013
</metadata>
<g transform="translate(0.000000,700.000000) scale(0.100000,-0.100000)"
fill="#000000" stroke="none">
<path d="M3428 6415 c-2 -1 -29 -5 -61 -9 -32 -3 -63 -8 -68 -11 -5 -4 -19 -8
-31 -10 -54 -11 -188 -72 -253 -116 -142 -96 -250 -225 -316 -379 -75 -174
-73 -137 -73 -1230 0 -894 2 -981 18 -1050 86 -370 376 -637 746 -686 281 -38
587 81 774 300 91 107 165 262 194 408 13 64 14 127 15 1138 l1 885 -23 90
c-101 390 -425 655 -821 670 -54 2 -100 2 -102 0z"/>
<path d="M1463 3683 c49 -808 620 -1516 1432 -1777 67 -22 124 -36 285 -71 8
-2 18 -4 22 -4 4 -1 9 -216 10 -478 l3 -478 283 0 c156 0 286 3 288 7 3 4 5
219 4 477 l0 469 52 12 c29 6 67 14 83 17 17 3 53 11 80 18 513 136 955 459
1240 905 62 96 165 312 199 415 30 93 72 270 80 335 3 25 8 93 12 153 l7 107
-249 0 -249 0 -3 -78 c-11 -334 -163 -681 -407 -927 -187 -190 -348 -294 -593
-384 -748 -274 -1608 62 -1946 762 -39 81 -91 228 -101 287 -3 18 -8 36 -10
40 -4 6 -8 32 -23 160 -4 30 -7 74 -7 98 l1 42 -250 0 -249 0 6 -107z"/>
</g>
</svg>
