<?xml version="1.0" standalone="no"?>
<!DOCTYPE svg PUBLIC "-//W3C//DTD SVG 20010904//EN"
 "http://www.w3.org/TR/2001/REC-SVG-20010904/DTD/svg10.dtd">
<svg version="1.0" xmlns="http://www.w3.org/2000/svg"
 width="700.000000pt" height="700.000000pt" viewBox="0 0 700.000000 700.000000"
 preserveAspectRatio="xMidYMid meet">
<metadata>
Created by potrace 1.11, written by Peter Selinger 2001-2013
</metadata>
<g transform="translate(0.000000,700.000000) scale(0.100000,-0.100000)"
fill="#000000" stroke="none">
<path d="M0 3500 l0 -3500 3500 0 3500 0 0 3500 0 3500 -3500 0 -3500 0 0
-3500z m3708 2890 c164 -39 303 -121 429 -253 88 -93 153 -202 196 -327 l32
-95 3 -995 c2 -713 0 -1016 -8 -1068 -44 -278 -222 -519 -475 -642 -132 -65
-195 -80 -346 -87 -150 -7 -253 10 -372 62 -126 54 -186 94 -282 190 -95 95
-152 180 -199 299 -61 152 -59 120 -63 1096 -5 975 -1 1092 43 1231 138 443
586 696 1042 589z m-1754 -2632 c3 -18 7 -72 10 -119 7 -107 51 -285 101 -404
193 -467 639 -815 1161 -906 163 -28 385 -28 548 0 530 93 981 450 1169 926
47 119 86 279 93 385 3 47 7 100 10 118 l5 32 244 0 245 0 0 -59 c0 -89 -28
-283 -56 -396 -173 -680 -728 -1243 -1425 -1443 -57 -17 -131 -35 -164 -42
-33 -6 -70 -13 -82 -16 l-23 -4 0 -475 0 -475 -290 0 -290 0 0 475 0 475 -22
4 c-243 49 -389 96 -573 186 -631 307 -1053 876 -1140 1533 -8 65 -15 145 -15
178 l0 59 245 0 244 0 5 -32z"/>
</g>
</svg>
